dataView<svg t="1658730019494" class="icon" viewBox="0 0 1024 1024" version="1.1" xmlns="http://www.w3.org/2000/svg" p-id="4959" width="48" height="48"><path d="M 763.29 123.494 H 281.19 c -70.0416 0 -126.976 56.9344 -126.976 126.976 v 523.059 c 0 70.0416 56.9344 126.976 126.976 126.976 H 501.76 c 13.5168 0 24.576 -11.0592 24.576 -24.576 s -11.0592 -24.576 -24.576 -24.576 H 281.19 c -43.008 0 -77.824 -34.816 -77.824 -77.824 V 250.47 c 0 -43.008 34.816 -77.824 77.824 -77.824 h 482.099 c 43.008 0 77.824 34.816 77.824 77.824 v 235.52 c 0 13.5168 11.0592 24.576 24.576 24.576 s 24.576 -11.0592 24.576 -24.576 v -235.52 c 0 -70.0416 -56.9344 -126.976 -126.976 -126.976 Z" p-id="4960" fill="#bfcbd9"></path><path d="M 772.096 348.16 c 0 -13.5168 -11.0592 -24.576 -24.576 -24.576 h -450.56 c -13.5168 0 -24.576 11.0592 -24.576 24.576 s 11.0592 24.576 24.576 24.576 h 450.56 c 13.5168 0 24.576 -11.0592 24.576 -24.576 Z M 460.8 487.424 h -163.84 c -13.5168 0 -24.576 11.0592 -24.576 24.576 s 11.0592 24.576 24.576 24.576 h 163.84 c 13.5168 0 24.576 -11.0592 24.576 -24.576 s -11.0592 -24.576 -24.576 -24.576 Z M 757.965 725.402 c 20.0704 -13.7216 36.4544 -33.3824 46.08 -57.7536 c 25.8048 -65.1264 -6.144 -139.059 -71.2704 -164.864 a 125.686 125.686 0 0 0 -97.0752 1.6384 c -31.1296 13.5168 -55.296 38.2976 -67.584 69.632 c -25.8048 65.1264 6.3488 139.059 71.2704 164.864 c 15.36 6.144 31.1296 9.0112 46.4896 9.0112 c 9.216 0 18.2272 -1.2288 27.0336 -3.2768 l 60.416 139.469 a 24.7194 24.7194 0 0 0 32.3584 12.6976 c 12.4928 -5.3248 18.2272 -19.8656 12.6976 -32.3584 l -60.416 -139.059 Z m -100.557 -31.9488 a 77.8854 77.8854 0 0 1 -43.8272 -100.966 a 77.8854 77.8854 0 0 1 100.966 -43.8272 c 39.936 15.7696 59.5968 61.0304 43.8272 100.966 a 77.9674 77.9674 0 0 1 -100.966 43.8272 Z M 460.8 651.264 h -163.84 c -13.5168 0 -24.576 11.0592 -24.576 24.576 s 11.0592 24.576 24.576 24.576 h 163.84 c 13.5168 0 24.576 -11.0592 24.576 -24.576 s -11.0592 -24.576 -24.576 -24.576 Z" p-id="4961" fill="#bfcbd9"></path></svg>