<svg t="1658729805031" class="icon" viewBox="0 0 1024 1024" version="1.1" xmlns="http://www.w3.org/2000/svg" p-id="3219" width="128" height="128"><path d="M454.72 398.56h-94.88L512 608l152.96-209.76h-96" fill="#bfcbd9" opacity=".15" p-id="3220"></path><path d="M94.88 625.76c0 38.24 12.16 56.96 37.92 56.96h304v56.8h151.68v-56.8h304c25.76 0 37.92-18.72 37.92-56.96v-304a56.8 56.8 0 0 0-56.8-56.96H644.8a19.04 19.04 0 1 1 0-37.92h227.52a94.88 94.88 0 0 1 94.72 94.88v512a94.72 94.72 0 0 1-94.72 94.72h-720a94.72 94.72 0 0 1-94.72-94.72v-512a94.88 94.88 0 0 1 94.72-94.88H379.2a19.04 19.04 0 1 1 0 37.92H151.68a56.8 56.8 0 0 0-56.8 56.96z m0 85.6V834.4a56.8 56.8 0 0 0 56.8 56.8h720a56.8 56.8 0 0 0 56.8-56.8V711.36A75.52 75.52 0 0 1 891.2 720H625.76v18.88a37.92 37.92 0 0 1-37.92 37.92H436.16a37.92 37.92 0 0 1-37.92-37.92V720H132.8a75.52 75.52 0 0 1-37.92-8.64zM435.68 96a19.04 19.04 0 1 1 37.92 0v302.4a18.88 18.88 0 0 1-18.88 19.04h-57.76L512 576l115.68-158.72h-59.36a19.04 19.04 0 0 1-19.04-18.88V199.04A19.04 19.04 0 0 1 568.32 180a19.2 19.2 0 0 1 19.04 19.04v180.48h77.6a18.88 18.88 0 0 1 18.88 19.04 18.24 18.24 0 0 1-3.68 11.04L528 619.52a19.04 19.04 0 0 1-27.2 4.48 17.12 17.12 0 0 1-4.16-4.16L344.48 409.6a18.72 18.72 0 0 1 4.16-25.6 19.2 19.2 0 0 1 11.2-3.68h75.84z" fill="#bfcbd9" p-id="3221"></path></svg>