<svg t="1658731231327" class="icon" viewBox="0 0 1024 1024" version="1.1" xmlns="http://www.w3.org/2000/svg" p-id="13662" width="48" height="48"><path d="M199.374 1021.799l-28.459-167.01L3.902 826.325 305.588 524.64 501.059 720l-301.685 301.799z m0 0" fill="#F3C450" p-id="13663"></path><path d="M169.317 845.909L11.187 818.93l-7.284 7.396 167.012 28.464-1.598-8.881z m321.385-136.271l-294.401 294.4 2.959 17.761L501.059 720l-10.357-10.362z m0 0" fill="#F7D582" p-id="13664"></path><path d="M827.682 1021.799l28.46-167.01 166.898-28.464L721.349 524.64 525.879 720l301.803 301.799z m0 0" fill="#F3C450" p-id="13665"></path><path d="M299.442 532.042L156.453 675.027l15.483 39.281c10.929 27.55 32.22 49.521 59.428 61.358l150.275 65.122L494.8 727.626 299.442 532.042z m426.237-2.962l142.989 142.991-15.483 39.275c-10.929 27.55-32.22 49.521-59.429 61.359l-150.273 65.121-113.164-113.161 195.36-195.585z m0 0" fill="#EF9115" p-id="13666"></path><path d="M691.411 700.417L533.28 727.396 525.879 720l167.011-28.464-1.479 8.881z m313.982 128.987L718.276 542.289l3.072-17.649 301.691 301.686-17.646 3.078z m0 0" fill="#F7D582" p-id="13667"></path><path d="M929.231 393.036L840.204 167.85c-10.929-27.552-32.217-49.521-59.425-61.36L558.666 10.291C531.57-1.435 500.834-2.006 473.284 8.922L248.099 97.95c-27.551 10.929-49.522 32.222-61.359 59.43L90.541 379.488c-11.726 27.095-12.298 57.836-1.369 85.386l89.026 225.18c10.931 27.552 32.216 49.521 59.425 61.365l222.113 96.199c27.096 11.726 57.832 12.292 85.382 1.362l225.186-89.026c27.551-10.924 49.521-32.217 61.364-59.426l96.199-222.225c11.727-27.095 12.18-57.83 1.364-85.267z m0 0" fill="#EC7517" p-id="13668"></path><path d="M179.449 428.897c0 117.788 62.841 226.631 164.849 285.525 102.008 58.896 227.688 58.896 329.694 0C776 655.528 838.84 546.685 838.84 428.897c0-117.789-62.84-226.628-164.848-285.525-102.007-58.896-227.687-58.896-329.694 0-102.008 58.897-164.849 167.736-164.849 285.525z m0 0" fill="#E6F3FB" p-id="13669"></path><path d="M509.033 99.318c2.276 0 4.436 0 6.713 0.113-178.963 3.645-322.86 149.706-322.86 329.577 0 179.877 143.896 325.938 322.86 329.471-2.277 0-4.437 0.112-6.713 0.112-182.042 0-329.696-147.543-329.696-329.694 0-182.154 147.542-329.579 329.696-329.579z m0 0" fill="#E5DFBA" p-id="13670"></path><path d="M509.258 99.318c-2.276 0-4.441 0-6.719 0.113 178.851 3.526 322.866 149.706 322.866 329.466 0 179.762-144.016 326.049-322.978 329.582 2.277 0 4.442 0.112 6.718 0.112 182.035 0 329.694-147.543 329.694-329.694 0.001-182.154-147.541-329.579-329.581-329.579z m0 0" fill="#FBFDFF" p-id="13671"></path><path d="M217.929 428.897c0 160.835 130.384 291.216 291.216 291.216 160.831 0 291.215-130.381 291.215-291.216 0-160.832-130.384-291.216-291.215-291.216-160.832 0-291.216 130.384-291.216 291.216z m0 0" fill="#EC7517" p-id="13672"></path><path d="M794.326 143.832s47.812 69.67 74.454 127.163c26.753 57.49 42.69 131.832 46.678 146.858 3.981 15.029 24.248 2.962 15.938-18.554-8.311-21.518-85.5-216.646-85.5-216.646s-8.995-36.775-39.501-55.672c-17.648-11.154-12.069 16.851-12.069 16.851zM528.043 28.959s64.55 16.851 115.209 35.182c50.777 18.326 106.103 52.823 117.716 59.424 11.613 6.606 15.37-12.521-2.731-20.377C740.135 95.33 575.4 25.202 575.4 25.202S557.304 7.33 528.498 14.048c-16.622 3.758-0.455 14.911-0.455 14.911z m366.352 456.518s-18.214 59.653-39.274 110.657c-21.063 51.118-59.996 102.686-67.398 113.732-7.396 11.041 13.206 20.604 22.201 2.731 8.994-17.871 89.026-180.672 89.026-180.672s13.318-28.118 11.956-60.109c-0.915-20.036-16.511 13.661-16.511 13.661z m0 0" fill="#DB9053" p-id="13673"></path><path d="M856.142 854.789l-9.791 2.39-28.689 154.604 10.021 10.017 28.459-167.011z m0 0" fill="#FFFFFF" p-id="13674"></path><path d="M375.75 332.921c4.855 4.856 11.264 7.304 17.673 7.304s12.781-2.448 17.674-7.304c9.75-9.75 9.75-25.598 0-35.348l-2.913-2.952c-9.751-9.75-25.6-9.75-35.349 0-9.75 9.75-9.75 25.599 0 35.348l2.915 2.952z m137.699-42.417c13.791 0 25.017-11.227 25.017-25.016v-4.117c-0.039-13.792-11.226-25.017-25.017-25.017-13.788 0-25.012 11.225-25.012 25.017v4.155c0 13.751 11.225 24.978 25.012 24.978zM343.741 410.222h-4.155c-13.791 0-25.016 11.225-25.016 25.014s11.225 25.016 25.016 25.016h4.155c13.792 0 25.016-11.228 25.016-25.016-0.039-13.789-11.265-25.014-25.016-25.014z m289.738-69.997c6.407 0 12.78-2.448 17.675-7.304l2.951-2.952c9.748-9.749 9.748-25.599 0-35.348-9.749-9.75-25.6-9.75-35.348 0l-2.952 2.952c-9.751 9.75-9.751 25.598 0 35.348 4.855 4.856 11.264 7.304 17.674 7.304z m53.838 69.997h-4.156c-13.789 0-25.017 11.225-25.017 25.014s11.228 25.016 25.017 25.016h4.156c13.789 0 25.016-11.228 25.016-25.016 0-13.789-11.227-25.014-25.016-25.014z m-36.163 127.369c-9.751-9.749-25.599-9.749-35.349 0-9.751 9.752-9.751 25.599 0 35.35l2.952 2.948c4.855 4.86 11.263 7.305 17.673 7.305 6.411 0 12.779-2.444 17.675-7.305 9.748-9.746 9.748-25.596 0-35.345l-2.951-2.953zM513.449 309.382c-69.373 0-125.853 56.441-125.853 125.854 0 69.376 56.44 125.854 125.853 125.854 69.419 0 125.856-56.479 125.856-125.854 0.001-69.374-56.479-125.854-125.856-125.854zM375.75 537.591l-2.952 2.953c-9.75 9.749-9.75 25.599 0 35.345 4.854 4.86 11.263 7.305 17.673 7.305 6.41 0 12.819-2.444 17.675-7.305l2.951-2.948c9.75-9.751 9.75-25.598 0-35.35-9.749-9.749-25.597-9.749-35.347 0z m137.699 42.379c-13.788 0-25.012 11.226-25.012 25.015v4.156c0 13.791 11.225 25.016 25.012 25.016 13.791 0 25.017-11.225 25.017-25.016v-4.156c-0.039-13.79-11.226-25.015-25.017-25.015z m0 0" fill="#DE1915" p-id="13675"></path><path d="M375.981 321.559c4.855 4.856 11.264 7.304 17.673 7.304 6.41 0 12.781-2.448 17.674-7.304 9.75-9.75 9.75-25.597 0-35.348l-2.913-2.951c-9.75-9.75-25.599-9.75-35.348 0-9.75 9.749-9.75 25.598 0 35.347l2.914 2.952z m137.701-42.417c13.791 0 25.016-11.227 25.016-25.015v-4.117c-0.038-13.792-11.225-25.017-25.016-25.017-13.788 0-25.013 11.225-25.013 25.017v4.155c0 13.75 11.225 24.977 25.013 24.977zM343.973 398.86h-4.155c-13.791 0-25.016 11.226-25.016 25.015s11.225 25.015 25.016 25.015h4.155c13.792 0 25.016-11.226 25.016-25.015-0.039-13.79-11.265-25.015-25.016-25.015z m289.739-69.997c6.407 0 12.779-2.448 17.674-7.304l2.952-2.952c9.748-9.749 9.748-25.598 0-35.347-9.749-9.75-25.6-9.75-35.348 0l-2.952 2.951c-9.751 9.751-9.751 25.599 0 35.348 4.855 4.857 11.264 7.304 17.674 7.304z m53.838 69.997h-4.157c-13.789 0-25.016 11.226-25.016 25.015s11.227 25.015 25.016 25.015h4.157c13.789 0 25.016-11.226 25.016-25.015s-11.227-25.015-25.016-25.015z m-36.164 127.369c-9.75-9.75-25.598-9.75-35.348 0-9.751 9.752-9.751 25.598 0 35.35l2.952 2.949c4.855 4.858 11.262 7.303 17.673 7.303s12.779-2.444 17.675-7.303c9.748-9.747 9.748-25.597 0-35.346l-2.952-2.953zM513.682 298.021c-69.374 0-125.853 56.44-125.853 125.854 0 69.376 56.439 125.854 125.853 125.854 69.419 0 125.856-56.479 125.856-125.854 0-69.374-56.479-125.854-125.856-125.854zM375.981 526.229l-2.951 2.953c-9.751 9.749-9.751 25.599 0 35.346 4.854 4.858 11.263 7.303 17.673 7.303 6.41 0 12.819-2.444 17.675-7.303l2.951-2.949c9.75-9.752 9.75-25.598 0-35.35-9.75-9.75-25.597-9.75-35.348 0z m137.701 42.378c-13.788 0-25.013 11.228-25.013 25.016v4.157c0 13.79 11.225 25.015 25.013 25.015 13.791 0 25.016-11.225 25.016-25.015v-4.157c-0.039-13.788-11.225-25.016-25.016-25.016z m0 0" fill="#FFFFFF" p-id="13676"></path></svg>