<svg t="1658730549708" class="icon" viewBox="0 0 1024 1024" version="1.1" xmlns="http://www.w3.org/2000/svg" p-id="6827" width="48" height="48"><path d="M435.7 102.4H205.8c-44.5 0-80.6 36.2-80.6 80.6v230c0 44.5 36.2 80.6 80.6 80.6h229.9c44.5 0 80.6-36.2 80.6-80.6V183c0.1-44.4-36.1-80.6-80.6-80.6z m0.7 310.6c0 0.4-0.3 0.6-0.6 0.6h-230c-0.4 0-0.6-0.3-0.6-0.6V183c0-0.4 0.3-0.6 0.6-0.6h229.9c0.4 0 0.6 0.3 0.6 0.6v230zM858.3 134.1H622.4c-22.1 0-40 17.9-40 40s17.9 40 40 40h235.9c22.1 0 40-17.9 40-40s-17.9-40-40-40zM858.3 260.7H622.4c-22.1 0-40 17.9-40 40s17.9 40 40 40h235.9c22.1 0 40-17.9 40-40s-17.9-40-40-40zM858.3 387.3H622.4c-22.1 0-40 17.9-40 40s17.9 40 40 40h235.9c22.1 0 40-17.9 40-40s-17.9-40-40-40zM435.7 538H205.8c-44.5 0-80.6 36.2-80.6 80.6v229.9c0 44.5 36.2 80.6 80.6 80.6h229.9c44.5 0 80.6-36.2 80.6-80.6V618.7c0.1-44.5-36.1-80.7-80.6-80.7z m0.7 310.6c0 0.4-0.3 0.6-0.6 0.6h-230c-0.4 0-0.6-0.3-0.6-0.6V618.7c0-0.4 0.3-0.6 0.6-0.6h229.9c0.4 0 0.6 0.3 0.6 0.6v229.9zM858.3 569.8H622.4c-22.1 0-40 17.9-40 40s17.9 40 40 40h235.9c22.1 0 40-17.9 40-40s-17.9-40-40-40zM858.3 696.4H622.4c-22.1 0-40 17.9-40 40s17.9 40 40 40h235.9c22.1 0 40-17.9 40-40s-17.9-40-40-40zM858.3 822.9H622.4c-22.1 0-40 17.9-40 40s17.9 40 40 40h235.9c22.1 0 40-17.9 40-40s-17.9-40-40-40z" p-id="6828" fill="#bfcbd9"></path></svg>