<svg t="1658730725716" class="icon" viewBox="0 0 1024 1024" version="1.1" xmlns="http://www.w3.org/2000/svg" p-id="9715" width="48" height="48"><path d="M768.3 512.3c0-141.3-114.5-255.8-255.8-255.8S256.7 371 256.7 512.3s114.5 255.8 255.8 255.8 255.8-114.6 255.8-255.8z m-218.6 87.8l-36.7 103L476.3 600l-98.8 47 47-98.8-103.1-36.7 103.1-36.7-47-98.8 98.8 47L513 320l36.7 103.1 98.8-47-47 98.8 103.1 36.7-103.1 36.7 47 98.8-98.8-47z" p-id="9716" fill="#bfcbd9"></path><path d="M640 511.6l-68.9-24.5 31.4-66-66 31.4-24.5-68.9-24.5 68.9-66-31.4 31.4 66-68.9 24.5 68.9 24.5-31.4 66 66-31.4 24.5 68.9 24.5-68.9 66 31.4-31.4-66 68.9-24.5zM525.2 541L513 575.4 500.8 541l-32.9 15.6 15.6-32.9-34.3-12.2 34.3-12.2-15.6-32.9 32.9 15.6 12.2-34.3 12.2 34.3 32.9-15.6-15.6 32.9 34.3 12.2-34.3 12.2 15.6 32.9-32.9-15.6zM267.1 620.9L63.8 824.2l128.9 7.3 6.9 128.5L403 756.6c-60.4-26.9-108.9-75.4-135.9-135.7zM756.8 621c-27 60.3-75.6 108.8-136 135.6L824.2 960l6.9-128.5 128.9-7.3L756.8 621zM366.7 253.6c4 6 12 7.6 18 3.7 6-4 7.6-12 3.7-18l-113.6-172c-4-6-12-7.6-18-3.7-6 4-7.6 12-3.7 18l113.6 172zM637.7 259.3c6 4 14 2.4 18-3.6l116.7-174c4-6 2.4-14-3.6-18s-14-2.4-18 3.6l-116.7 174c-4 5.9-2.4 14 3.6 18z" p-id="9717" fill="#bfcbd9"></path></svg>