<svg t="1658729960430" class="icon" viewBox="0 0 1024 1024" version="1.1" xmlns="http://www.w3.org/2000/svg" p-id="4601" width="128" height="128"><path d="M724.5 877.3c-7.8 0-15.5-2.9-21.5-8.3L575.8 753.4l-167.4 39.2c-11.9 2.7-24.3-1.4-32-10.8-7.8-9.4-9.5-22.4-4.5-33.5l70.7-156.7-89-147c-6.3-10.4-6.2-23.5 0.4-33.8 6.5-10.3 18.3-16 30.5-14.6L555.4 415l112.3-130.1c8-9.2 20.4-13.2 32.3-10 11.8 3 20.8 12.5 23.3 24.5l35 168.3 158.5 66.7c11.2 4.8 18.8 15.4 19.5 27.6 0.7 12.2-5.5 23.7-16.1 29.7l-149.3 85.2L756.4 848c-1 12.2-8.8 22.7-20.2 27.1-3.7 1.5-7.7 2.2-11.7 2.2zM584.9 686.4c7.9 0 15.6 2.9 21.5 8.3l91.7 83.3 10.4-123.5c0.9-10.5 6.9-19.9 16-25.1L832.1 568l-114.2-48c-9.7-4.1-16.8-12.7-18.9-23l-25.2-121.3-81 93.8c-6.9 8-17.3 11.9-27.7 10.9L442 466.8l64.2 106c5.5 9 6.1 20.1 1.8 29.8l-51 112.9 120.6-28.3c2.4-0.5 4.9-0.8 7.3-0.8z" p-id="4602" fill="#bfcbd9"></path><path d="M637.4 268.8c-5.5-10.7-16.6-17.9-28.6-17.9l-142.9-0.9-80.6-118.2c-6.8-9.8-18.8-15.4-30.7-13.7-12.4 1.7-22.2 10.2-26 21.8l-44.8 135.7-137.4 39.7c-11.9 3.4-20.5 13.2-22.6 25.2-2.1 11.9 2.6 24.3 12.4 31.6l115.2 84.5-4.4 142.9c-0.4 12.4 6 23.5 16.6 29.4 4.7 2.6 10.2 3.8 15.4 3.8 6.4 0 12.8-2.1 18.3-6.4l98.6-70.4-33.3-55-49.9 35.8 3-94.7c0.4-10.7-4.3-20.9-12.8-26.9l-76.4-56.3 90.9-26.5c10.2-3 18.3-10.7 21.3-20.9l30.3-90 53.3 78.5c6 9 15.8 14.1 26 14.1l95.1 0.4-55.9 71.7 74.9 8.1 71.1-91.7c4.7-5.1 6.8-12.4 6.8-18.8 0.1-5.1-0.7-10.2-2.9-14.9z" fill="#bfcbd9" p-id="4603"></path></svg>