<svg t="1658730951916" class="icon" viewBox="0 0 1024 1024" version="1.1" xmlns="http://www.w3.org/2000/svg" p-id="9934" width="128" height="128"><path d="M451.4 527.9c-110.2 0-199.9-89.7-199.9-199.9s89.6-200 199.9-200 199.9 89.7 199.9 199.9-89.7 200-199.9 200z m0-353.5c-84.7 0-153.5 68.9-153.5 153.5s68.9 153.5 153.5 153.5 153.5-68.9 153.5-153.5S536 174.4 451.4 174.4z" fill="#bfcbd9" p-id="9935"></path><path d="M545.3 351.1c-12.8 0-23.2-10.4-23.2-23.2 0-39-31.7-70.7-70.7-70.7-12.8 0-23.2-10.4-23.2-23.2 0-12.8 10.4-23.2 23.2-23.2 64.6 0 117.1 52.5 117.1 117.1 0 12.8-10.4 23.2-23.2 23.2zM802.1 894.6H100.7l-2.1-20.9c-1.2-11.9-1.8-23.8-1.8-35.4 0-195.5 159.1-354.6 354.6-354.6S806 642.8 806 838.3c0 11.6-0.6 23.5-1.8 35.4l-2.1 20.9z m-658.8-46.4h616c0.1-3.3 0.2-6.7 0.2-9.9 0-169.9-138.3-308.2-308.2-308.2S143.2 668.3 143.2 838.3c0 3.2 0 6.6 0.1 9.9zM916.4 205.3H730.8c-12.8 0-23.2-10.4-23.2-23.2 0-12.8 10.4-23.2 23.2-23.2h185.6c12.8 0 23.2 10.4 23.2 23.2 0 12.8-10.4 23.2-23.2 23.2zM854.5 329H730.8c-12.8 0-23.2-10.4-23.2-23.2 0-12.8 10.4-23.2 23.2-23.2h123.7c12.8 0 23.2 10.4 23.2 23.2 0 12.8-10.3 23.2-23.2 23.2z" fill="#bfcbd9" p-id="9936"></path></svg>