<svg t="1658730612458" class="icon" viewBox="0 0 1024 1024" version="1.1" xmlns="http://www.w3.org/2000/svg" p-id="7860" width="48" height="48"><path d="M183.9 534.2c5.7 0 11.4-2.9 15.3-6.7l109.6-127.7c4.8-5.7 5.7-13.3 2.9-20-2.9-6.7-9.5-11.4-17.2-11.4H194.4c25.7-67.7 70.5-124.9 131.6-164.9 77.2-51.5 168.7-69.6 259.3-51.5 128.7 25.7 232.6 123.9 266 250.7 3.8 15.3 20 24.8 35.3 20 15.3-3.8 24.8-20 20-35.3-38.2-146.8-160.3-261.2-309.9-291.7-105.8-21-212.6 0-302.2 60.1-77.3 51.4-133.5 125.8-160.2 212.5H82.8c-7.6 0-14.3 3.8-17.2 10.5-2.9 6.7-1.9 14.3 1.9 20l101.1 128.7c3.8 3.8 9.6 6.7 15.3 6.7z m772.2 92.5L855 499.9c-3.8-4.8-8.6-6.7-14.3-7.6-5.7 0-11.4 1.9-15.3 6.7L715.8 626.7c-4.8 5.7-5.7 13.3-2.9 20 2.9 6.7 9.5 11.4 17.2 11.4h99.1c-60.1 155.4-225.9 248.8-394.7 213.5-127.7-26.7-228.8-122-263.1-247.9-3.8-15.3-20-23.8-35.3-20-15.3 3.8-23.8 20-20 35.3 40 146.8 157.3 257.4 307 288.8 27.6 5.7 55.3 8.6 82.9 8.6 172.5 0 329.8-111.5 384.2-278.4h50.5c7.6 0 14.3-3.8 17.2-10.5 2.9-6.5 2-15.1-1.8-20.8z m0 0" p-id="7861" fill="#bfcbd9"></path></svg>