<svg t="1658731125679" class="icon" viewBox="0 0 1024 1024" version="1.1" xmlns="http://www.w3.org/2000/svg" p-id="11783" width="48" height="48"><path d="M512.104171 510.85412c-25.834385 0-50.62706-5.208545-73.336317-14.583927-23.750966-9.792065-44.793489-23.959308-62.294202-41.668362-17.500712-17.500712-31.876297-38.751577-41.668362-62.294201-9.375381-22.709257-14.583927-47.501933-14.583927-73.336318 0-25.834385 5.208545-50.62706 14.583927-73.336317 9.792065-23.750966 23.959308-44.793489 41.668362-62.294202 17.500712-17.500712 38.751577-31.876297 62.294202-41.668362 22.709257-9.375381 47.501933-14.583927 73.336317-14.583926v383.765615z" fill="#40C4FF" p-id="11784"></path><path d="M647.73469 454.601831a192.19532 192.19532 0 0 1-62.502544 41.668362c-22.709257 9.375381-47.293591 14.583927-72.919633 14.583927h-0.208342V127.088505h0.625025c25.626043 0 50.210376 5.208545 72.711292 14.583926 23.750966 9.792065 44.793489 23.959308 62.502544 41.668362 17.500712 17.500712 31.876297 38.751577 41.668362 62.502544 9.375381 22.709257 14.583927 47.501933 14.583926 73.336317 0 25.834385-5.208545 50.62706-14.583926 73.336318-10.208749 23.334283-24.375992 44.585148-41.876704 62.085859z" fill="#29B6F6" p-id="11785"></path><path d="M512.104171 506.687284h0.208342l87.086877-0.625026 15.208952 5.416887 18.125737 6.458597 9.583724 3.54181c12.917192 4.58352 24.584334 9.583723 35.209766 15.000611 10.833774 5.625229 21.250865 11.875483 31.042929 18.750763 10.000407 7.083622 19.375788 15.00061 27.917803 23.334283 8.542014 8.542014 16.250661 17.500712 23.125941 27.292777 6.87528 9.583723 12.917192 19.792472 18.125738 30.626246 5.000203 10.417091 9.375381 21.667548 12.917192 33.543031 3.333469 11.250458 6.041913 22.917599 8.125331 34.793083 6.041913 37.709868 3.750153 75.419736 3.750152 113.129603v78.753205H512.104171V506.687284z" fill="#039BE5" p-id="11786"></path><path d="M300.637233 896.911495h-78.753205v-78.753204c0-35.001424-2.500102-75.836419 3.125128-110.212818 2.083418-12.500509 5.000203-24.792675 9.167039-36.668159 3.958494-11.875483 8.958698-23.542625 14.792269-34.58474 6.041913-11.4588 12.70885-22.084232 20.000814-31.876297 7.291963-9.792065 15.625636-19.167447 25.001017-28.126145 8.958698-8.542014 18.542421-16.667345 29.167854-23.959308 10.417091-7.291963 21.250865-13.75056 32.501322-19.167447 11.250458-5.416887 22.917599-10.000407 35.001424-13.750559l9.16704-2.708444 17.29237-5.208545 14.375585-4.375178 80.628281-0.625025v390.224211l-211.466938-0.208342z" fill="#40C4FF" p-id="11787"></path></svg>